<svg xmlns="http://www.w3.org/2000/svg" width="32" height="32" viewBox="0 0 32 32" fill="none"><path d="M32 16C32 24.8366 24.8366 32 16 32C7.16344 32 0 24.8366 0 16C0 7.16344 7.16344 0 16 0C24.8366 0 32 7.16344 32 16Z" fill="url(#paint0_radial_1_65)"/><path d="M5.4302 28.0381C5.40837 28.0221 5.386 28.0019 5.36362 27.9773C4.94946 27.6005 4.27486 27.0062 3.56991 26.108C2.96109 24.7874 3.30619 22.5691 4.80446 19.4372C6.91842 15.0182 10.3008 10.5315 11.6875 8.94004C11.2929 8.49984 10.0708 7.29436 8.33902 5.99406C6.60726 4.69377 5.34564 4.56058 4.90593 4.63959C5.31181 4.19939 6.25887 3.36977 7.05373 2.81105C9.51607 1.59203 14.0664 3.65195 16.0169 4.82583V12.9019C11.0449 16.7283 6.4449 22.6371 5.51475 24.9397C4.80483 26.6972 5.08548 27.6718 5.36362 27.9773C5.38663 27.9982 5.40884 28.0185 5.4302 28.0381Z" fill="url(#paint1_linear_1_65)"/><path d="M5.4302 28.0381C5.40837 28.0221 5.386 28.0019 5.36362 27.9773C4.94946 27.6005 4.27486 27.0062 3.56991 26.108C2.96109 24.7874 3.30619 22.5691 4.80446 19.4372C7.25872 14.3069 11.6875 8.94004 11.6875 8.94004C11.6875 8.94004 12.4783 10.9033 14.273 14.3065C9.65079 18.4039 6.4449 22.6371 5.51475 24.9397C4.80483 26.6972 5.08548 27.6718 5.36362 27.9773C5.38663 27.9982 5.40884 28.0185 5.4302 28.0381Z" fill="url(#paint2_linear_1_65)"/><path d="M26.6037 28.0381C26.6255 28.0221 26.6479 28.0019 26.6702 27.9773C27.0844 27.6005 27.759 27.0062 28.464 26.108C29.0728 24.7874 28.7277 22.5691 27.2294 19.4372C25.1154 15.0182 21.7331 10.5315 20.3463 8.94004C20.7409 8.49984 21.9631 7.29436 23.6948 5.99406C25.4266 4.69377 26.6882 4.56058 27.1279 4.63959C26.7221 4.19939 25.775 3.36977 24.9801 2.81105C22.5178 1.59203 17.9674 3.65195 16.0169 4.82583V12.9019C20.989 16.7283 25.589 22.6371 26.5191 24.9397C27.229 26.6972 26.9484 27.6718 26.6702 27.9773C26.6472 27.9982 26.625 28.0185 26.6037 28.0381Z" fill="url(#paint3_linear_1_65)"/><path d="M26.6037 28.0381C26.6255 28.0221 26.6479 28.0019 26.6702 27.9773C27.0844 27.6005 27.759 27.0062 28.464 26.108C29.0728 24.7874 28.7277 22.5691 27.2294 19.4372C24.7751 14.3069 20.3463 8.94004 20.3463 8.94004C20.3463 8.94004 19.5556 10.9033 17.7608 14.3065C22.3831 18.4039 25.589 22.6371 26.5191 24.9397C27.229 26.6972 26.9484 27.6718 26.6702 27.9773C26.6472 27.9982 26.625 28.0185 26.6037 28.0381Z" fill="url(#paint4_linear_1_65)"/><defs><radialGradient id="paint0_radial_1_65" cx="0" cy="0" r="1" gradientUnits="userSpaceOnUse" gradientTransform="translate(16 14.2857) rotate(90.0548) scale(17.7143)"><stop stop-color="#FAFAFA"/><stop offset="0.499976" stop-color="#EFEFEF"/><stop offset="0.828794" stop-color="#C0BEC0"/><stop offset="1" stop-color="#879288"/></radialGradient><linearGradient id="paint1_linear_1_65" x1="23.3192" y1="0.846561" x2="23.4877" y2="12.3673" gradientUnits="userSpaceOnUse"><stop stop-color="#008B00"/><stop offset="1" stop-color="#6CC329"/></linearGradient><linearGradient id="paint2_linear_1_65" x1="22.7217" y1="12.1905" x2="19.6063" y2="16.4572" gradientUnits="userSpaceOnUse"><stop stop-color="#008C00"/><stop offset="1" stop-color="#48BF21"/></linearGradient><linearGradient id="paint3_linear_1_65" x1="23.3192" y1="0.846561" x2="23.4877" y2="12.3673" gradientUnits="userSpaceOnUse"><stop stop-color="#008B00"/><stop offset="1" stop-color="#6CC329"/></linearGradient><linearGradient id="paint4_linear_1_65" x1="22.7217" y1="12.1905" x2="19.6063" y2="16.4572" gradientUnits="userSpaceOnUse"><stop stop-color="#008C00"/><stop offset="1" stop-color="#48BF21"/></linearGradient></defs></svg>